# xmcd CD database file
#
# Track frame offsets:
#	150
#	23054
#	35946
#	66976
#	92568
#	113491
#	141444
#	157102
#	182392
#	206132
#	224708
#
# Disc length: 3358 seconds
#
# Revision: 0
# Processed by: cddbd v1.5.2PL0 Copyright (c) Steve Scherf et al.
# Submitted via: CDex 1.50
#
DISCID=a60d1c0b
DTITLE=Maria Baptiste Trio -  Gate 29
DYEAR=2012
DGENRE=Jazz
TTITLE0=Travel in Possibilities
TTITLE1=Gate 29
TTITLE2=Cloud 9
TTITLE3=A Day in November
TTITLE4=Midnight Rain
TTITLE5=The Blue Shore
TTITLE6=Moon and Mars
TTITLE7=Roof Garden
TTITLE8=Minotaurus
TTITLE9=Open Landscape
TTITLE10=Goodbye
EXTD=YEAR: 2012
EXTT0=
EXTT1=
EXTT2=
EXTT3=
EXTT4=
EXTT5=
EXTT6=
EXTT7=
EXTT8=
EXTT9=
EXTT10=
PLAYORDER=
